<?xml version="1.0" encoding="UTF-8"?>
<svg width="80" height="40" viewBox="0 0 80 40" fill="none" xmlns="http://www.w3.org/2000/svg">
  <!-- Q -->
  <path d="M15 8C9.48 8 5 12.48 5 18C5 23.52 9.48 28 15 28C17.5 28 19.8 27.1 21.6 25.6L24 28L26 26L23.6 23.6C25.1 21.8 26 19.5 26 17C26 11.48 21.52 8 15 8ZM15 25C11.14 25 8 21.86 8 18C8 14.14 11.14 11 15 11C18.86 11 22 14.14 22 18C22 21.86 18.86 25 15 25Z" fill="#1890FF"/>
  
  <!-- Pay -->
  <path d="M35 20V28H38V20H42V17H31V20H35Z" fill="#1890FF"/>
  <path d="M45 17V28H48V24H51C53.76 24 56 21.76 56 19C56 16.24 53.76 14 51 14H45V17ZM48 21V17H51C52.1 17 53 17.9 53 19C53 20.1 52.1 21 51 21H48Z" fill="#1890FF"/>
  <path d="M65 17L60 28H63L64 25H70L71 28H74L69 17H65ZM65 22L67 18L69 22H65Z" fill="#1890FF"/>
</svg> 